<?xml version="1.0" encoding="UTF-8" standalone="no"?>
<!-- Created with Inkscape (http://www.inkscape.org/) -->

<svg
   xmlns:dc="http://purl.org/dc/elements/1.1/"
   xmlns:cc="http://creativecommons.org/ns#"
   xmlns:rdf="http://www.w3.org/1999/02/22-rdf-syntax-ns#"
   xmlns:svg="http://www.w3.org/2000/svg"
   xmlns="http://www.w3.org/2000/svg"
   xmlns:sodipodi="http://sodipodi.sourceforge.net/DTD/sodipodi-0.dtd"
   xmlns:inkscape="http://www.inkscape.org/namespaces/inkscape"
   id="svg2"
   version="1.1"
   inkscape:version="0.91 r13725"
   xml:space="preserve"
   width="275.07327"
   height="130.70526"
   viewBox="0 0 275.07327 130.70526"
   sodipodi:docname="xor_nn.svg"><metadata
     id="metadata8"><rdf:RDF><cc:Work
         rdf:about=""><dc:format>image/svg+xml</dc:format><dc:type
           rdf:resource="http://purl.org/dc/dcmitype/StillImage" /><dc:title></dc:title></cc:Work></rdf:RDF></metadata><defs
     id="defs6" /><sodipodi:namedview
     pagecolor="#ffffff"
     bordercolor="#666666"
     borderopacity="1"
     objecttolerance="10"
     gridtolerance="10"
     guidetolerance="10"
     inkscape:pageopacity="0"
     inkscape:pageshadow="2"
     inkscape:window-width="1920"
     inkscape:window-height="1176"
     id="namedview4"
     showgrid="false"
     fit-margin-top="0"
     fit-margin-left="0"
     fit-margin-right="0"
     fit-margin-bottom="0"
     inkscape:zoom="0.23838384"
     inkscape:cx="192.09999"
     inkscape:cy="-204.95504"
     inkscape:window-x="0"
     inkscape:window-y="24"
     inkscape:window-maximized="1"
     inkscape:current-layer="g10" /><g
     id="g10"
     inkscape:groupmode="layer"
     inkscape:label="xor_nn"
     transform="matrix(1.25,0,0,-1.25,-190.40001,830.6603)"><g
       id="g12"
       transform="translate(187.252,625.126)"><g
         id="g14"><g
           id="g16"><g
             id="g18"><g
               id="g20"><path
                 d="M 8.46835,0 C 8.46835,4.67699 4.67699,8.46835 0,8.46835 -4.67699,8.46835 -8.46835,4.67699 -8.46835,0 c 0,-4.67699 3.79136,-8.46835 8.46835,-8.46835 4.67699,0 8.46835,3.79136 8.46835,8.46835 z"
                 style="fill:#98e80c;fill-opacity:1;fill-rule:nonzero;stroke:none"
                 id="path22"
                 inkscape:connector-curvature="0" /></g><g
               id="g24"><g
                 id="g26" /></g></g><g
             id="g28"><g
               id="g30"
               transform="translate(-35.219,-1.398)"><g
                 id="g32"><g
                   id="g34"
                   transform="translate(-152.033,-623.728)"><text
                     transform="matrix(1,0,0,-1,152.033,623.728)"
                     style="font-variant:normal;font-weight:normal;font-size:9.96259975px;font-family:CMMI10;-inkscape-font-specification:CMMI10;writing-mode:lr-tb;fill:#000000;fill-opacity:1;fill-rule:nonzero;stroke:none"
                     id="text36"><tspan
                       x="0"
                       y="0"
                       id="tspan38">x</tspan></text>
<text
                     transform="matrix(1,0,0,-1,157.727,622.234)"
                     style="font-variant:normal;font-weight:normal;font-size:6.97380018px;font-family:CMR7;-inkscape-font-specification:CMR7;writing-mode:lr-tb;fill:#000000;fill-opacity:1;fill-rule:nonzero;stroke:none"
                     id="text40"><tspan
                       x="0"
                       y="0"
                       id="tspan42">0</tspan></text>
<g
                     id="g44"
                     transform="translate(152.033,623.728)" /></g></g><g
                 id="g46"
                 transform="translate(35.219,1.398)" /></g></g><g
             id="g48"><path
               d="M -10.12215,0 -20.53986,0"
               style="fill:none;stroke:#808080;stroke-width:0.3985;stroke-linecap:butt;stroke-linejoin:miter;stroke-miterlimit:10;stroke-dasharray:none;stroke-opacity:1"
               id="path50"
               inkscape:connector-curvature="0" /><g
               id="g52"
               transform="translate(-10.12215,0)"><g
                 id="g54"><path
                   d="M -1.19551,1.59401 C -1.09587,0.99626 0,0.09961 0.29886,0 0,-0.09961 -1.09587,-0.99626 -1.19551,-1.59401"
                   style="fill:none;stroke:#808080;stroke-width:0.31878999;stroke-linecap:round;stroke-linejoin:round;stroke-miterlimit:10;stroke-dasharray:none;stroke-opacity:1"
                   id="path56"
                   inkscape:connector-curvature="0" /></g></g></g><g
             id="g58"><g
               id="g60"><path
                 d="m 8.46835,-28.3468 c 0,4.677 -3.79136,8.46835 -8.46835,8.46835 -4.67699,0 -8.46835,-3.79135 -8.46835,-8.46835 0,-4.677 3.79136,-8.46836 8.46835,-8.46836 4.67699,0 8.46835,3.79136 8.46835,8.46836 z"
                 style="fill:#98e80c;fill-opacity:1;fill-rule:nonzero;stroke:none"
                 id="path62"
                 inkscape:connector-curvature="0" /></g><g
               id="g64"
               transform="translate(0,-28.347)"><g
                 id="g66" /><g
                 id="g68"
                 transform="translate(0,28.347)" /></g></g><g
             id="g70"><g
               id="g72"
               transform="translate(-35.219,-29.744)"><g
                 id="g74"><g
                   id="g76"
                   transform="translate(-152.033,-595.382)"><text
                     transform="matrix(1,0,0,-1,152.033,595.382)"
                     style="font-variant:normal;font-weight:normal;font-size:9.96259975px;font-family:CMMI10;-inkscape-font-specification:CMMI10;writing-mode:lr-tb;fill:#000000;fill-opacity:1;fill-rule:nonzero;stroke:none"
                     id="text78"><tspan
                       x="0"
                       y="0"
                       id="tspan80">x</tspan></text>
<text
                     transform="matrix(1,0,0,-1,157.727,593.887)"
                     style="font-variant:normal;font-weight:normal;font-size:6.97380018px;font-family:CMR7;-inkscape-font-specification:CMR7;writing-mode:lr-tb;fill:#000000;fill-opacity:1;fill-rule:nonzero;stroke:none"
                     id="text82"><tspan
                       x="0"
                       y="0"
                       id="tspan84">1</tspan></text>
<g
                     id="g86"
                     transform="translate(152.033,595.382)" /></g></g><g
                 id="g88"
                 transform="translate(35.219,29.744)" /></g></g><g
             id="g90"><path
               d="m -10.12215,-28.3468 -10.41771,0"
               style="fill:none;stroke:#808080;stroke-width:0.3985;stroke-linecap:butt;stroke-linejoin:miter;stroke-miterlimit:10;stroke-dasharray:none;stroke-opacity:1"
               id="path92"
               inkscape:connector-curvature="0" /><g
               id="g94"
               transform="translate(-10.12215,-28.3468)"><g
                 id="g96"><path
                   d="M -1.19551,1.59401 C -1.09587,0.99626 0,0.09961 0.29886,0 0,-0.09961 -1.09587,-0.99626 -1.19551,-1.59401"
                   style="fill:none;stroke:#808080;stroke-width:0.31878999;stroke-linecap:round;stroke-linejoin:round;stroke-miterlimit:10;stroke-dasharray:none;stroke-opacity:1"
                   id="path98"
                   inkscape:connector-curvature="0" /></g></g></g><g
             id="g100"><g
               id="g102"><path
                 d="m 8.46835,-56.69362 c 0,4.677 -3.79136,8.46835 -8.46835,8.46835 -4.67699,0 -8.46835,-3.79135 -8.46835,-8.46835 0,-4.67698 3.79136,-8.46835 8.46835,-8.46835 4.67699,0 8.46835,3.79137 8.46835,8.46835 z"
                 style="fill:#98e80c;fill-opacity:1;fill-rule:nonzero;stroke:none"
                 id="path104"
                 inkscape:connector-curvature="0" /></g><g
               id="g106"
               transform="translate(0,-56.693)"><g
                 id="g108" /><g
                 id="g110"
                 transform="translate(0,56.693)" /></g></g><g
             id="g112"><g
               id="g114"
               transform="translate(-35.219,-58.091)"><g
                 id="g116"><g
                   id="g118"
                   transform="translate(-152.033,-567.035)"><text
                     transform="matrix(1,0,0,-1,152.033,567.035)"
                     style="font-variant:normal;font-weight:normal;font-size:9.96259975px;font-family:CMMI10;-inkscape-font-specification:CMMI10;writing-mode:lr-tb;fill:#000000;fill-opacity:1;fill-rule:nonzero;stroke:none"
                     id="text120"><tspan
                       x="0"
                       y="0"
                       id="tspan122">x</tspan></text>
<text
                     transform="matrix(1,0,0,-1,157.727,565.541)"
                     style="font-variant:normal;font-weight:normal;font-size:6.97380018px;font-family:CMR7;-inkscape-font-specification:CMR7;writing-mode:lr-tb;fill:#000000;fill-opacity:1;fill-rule:nonzero;stroke:none"
                     id="text124"><tspan
                       x="0"
                       y="0"
                       id="tspan126">2</tspan></text>
<g
                     id="g128"
                     transform="translate(152.033,567.035)" /></g></g><g
                 id="g130"
                 transform="translate(35.219,58.091)" /></g></g><g
             id="g132"><path
               d="m -10.12215,-56.69362 -10.41771,0"
               style="fill:none;stroke:#808080;stroke-width:0.3985;stroke-linecap:butt;stroke-linejoin:miter;stroke-miterlimit:10;stroke-dasharray:none;stroke-opacity:1"
               id="path134"
               inkscape:connector-curvature="0" /><g
               id="g136"
               transform="translate(-10.12215,-56.69362)"><g
                 id="g138"><path
                   d="M -1.19551,1.59401 C -1.09587,0.99626 0,0.09961 0.29886,0 0,-0.09961 -1.09587,-0.99626 -1.19551,-1.59401"
                   style="fill:none;stroke:#808080;stroke-width:0.31878999;stroke-linecap:round;stroke-linejoin:round;stroke-miterlimit:10;stroke-dasharray:none;stroke-opacity:1"
                   id="path140"
                   inkscape:connector-curvature="0" /></g></g></g><g
             id="g142"><g
               id="g144"><path
                 d="m 79.33539,0 c 0,4.67699 -3.79135,8.46835 -8.46836,8.46835 -4.67698,0 -8.46835,-3.79136 -8.46835,-8.46835 0,-4.67699 3.79137,-8.46835 8.46835,-8.46835 4.67701,0 8.46836,3.79136 8.46836,8.46835 z"
                 style="fill:#42affa;fill-opacity:1;fill-rule:nonzero;stroke:none"
                 id="path146"
                 inkscape:connector-curvature="0" /></g><g
               id="g148"
               transform="translate(70.866,0)"><g
                 id="g150" /><g
                 id="g152"
                 transform="translate(-70.866,0)" /></g></g><g
             id="g154"><g
               id="g156"><path
                 d="m 79.33539,-28.3468 c 0,4.677 -3.79135,8.46835 -8.46836,8.46835 -4.67698,0 -8.46835,-3.79135 -8.46835,-8.46835 0,-4.677 3.79137,-8.46836 8.46835,-8.46836 4.67701,0 8.46836,3.79136 8.46836,8.46836 z"
                 style="fill:#42affa;fill-opacity:1;fill-rule:nonzero;stroke:none"
                 id="path158"
                 inkscape:connector-curvature="0" /></g><g
               id="g160"
               transform="translate(70.866,-28.347)"><g
                 id="g162" /><g
                 id="g164"
                 transform="translate(-70.866,28.347)" /></g></g><g
             id="g166"><g
               id="g168"><path
                 d="m 79.33539,-56.69362 c 0,4.677 -3.79135,8.46835 -8.46836,8.46835 -4.67698,0 -8.46835,-3.79135 -8.46835,-8.46835 0,-4.67698 3.79137,-8.46835 8.46835,-8.46835 4.67701,0 8.46836,3.79137 8.46836,8.46835 z"
                 style="fill:#42affa;fill-opacity:1;fill-rule:nonzero;stroke:none"
                 id="path170"
                 inkscape:connector-curvature="0" /></g><g
               id="g172"
               transform="translate(70.866,-56.693)"><g
                 id="g174" /><g
                 id="g176"
                 transform="translate(-70.866,56.693)" /></g></g><g
             id="g178"><g
               id="g180"><path
                 d="m 150.20244,-28.3468 c 0,4.677 -3.79135,8.46835 -8.46835,8.46835 -4.67699,0 -8.46836,-3.79135 -8.46836,-8.46835 0,-4.677 3.79137,-8.46836 8.46836,-8.46836 4.677,0 8.46835,3.79136 8.46835,8.46836 z"
                 style="fill:#fb4953;fill-opacity:1;fill-rule:nonzero;stroke:none"
                 id="path182"
                 inkscape:connector-curvature="0" /></g><g
               id="g184"
               transform="translate(141.732,-28.347)"><g
                 id="g186" /><g
                 id="g188"
                 transform="translate(-141.732,28.347)" /></g></g><g
             id="g190"><g
               id="g192"
               transform="translate(166.788,-30.837)"><g
                 id="g194"><g
                   id="g196"
                   transform="translate(-354.04,-594.289)"><text
                     transform="matrix(1,0,0,-1,354.04,594.289)"
                     style="font-variant:normal;font-weight:normal;font-size:9.96259975px;font-family:CMMI10;-inkscape-font-specification:CMMI10;writing-mode:lr-tb;fill:#000000;fill-opacity:1;fill-rule:nonzero;stroke:none"
                     id="text198"><tspan
                       x="0"
                       y="0"
                       id="tspan200">h</tspan></text>
<text
                     transform="matrix(1,0,0,-1,359.78,594.289)"
                     style="font-variant:normal;font-weight:normal;font-size:9.96259975px;font-family:CMR10;-inkscape-font-specification:CMR10;writing-mode:lr-tb;fill:#000000;fill-opacity:1;fill-rule:nonzero;stroke:none"
                     id="text202"><tspan
                       x="0"
                       y="0"
                       id="tspan204">(</tspan></text>
<text
                     transform="matrix(1,0,0,-1,363.654,594.289)"
                     style="font-variant:normal;font-weight:normal;font-size:9.96259975px;font-family:CMMI10;-inkscape-font-specification:CMMI10;writing-mode:lr-tb;fill:#000000;fill-opacity:1;fill-rule:nonzero;stroke:none"
                     id="text206"><tspan
                       x="0"
                       y="0"
                       id="tspan208">x</tspan></text>
<text
                     transform="matrix(1,0,0,-1,369.348,594.289)"
                     style="font-variant:normal;font-weight:normal;font-size:9.96259975px;font-family:CMR10;-inkscape-font-specification:CMR10;writing-mode:lr-tb;fill:#000000;fill-opacity:1;fill-rule:nonzero;stroke:none"
                     id="text210"><tspan
                       x="0"
                       y="0"
                       id="tspan212">)</tspan></text>
<g
                     id="g214"
                     transform="translate(354.04,594.289)" /></g></g><g
                 id="g216"
                 transform="translate(-166.788,30.837)" /></g></g><g
             id="g218"><path
               d="m 151.39796,-28.3468 10.41771,0"
               style="fill:none;stroke:#808080;stroke-width:0.3985;stroke-linecap:butt;stroke-linejoin:miter;stroke-miterlimit:10;stroke-dasharray:none;stroke-opacity:1"
               id="path220"
               inkscape:connector-curvature="0" /><g
               id="g222"
               transform="translate(161.81567,-28.3468)"><g
                 id="g224"><path
                   d="M -1.19551,1.59401 C -1.09587,0.99626 0,0.09961 0.29886,0 0,-0.09961 -1.09587,-0.99626 -1.19551,-1.59401"
                   style="fill:none;stroke:#808080;stroke-width:0.31878999;stroke-linecap:round;stroke-linejoin:round;stroke-miterlimit:10;stroke-dasharray:none;stroke-opacity:1"
                   id="path226"
                   inkscape:connector-curvature="0" /></g></g></g><g
             id="g228"><path
               d="m 8.6676,-28.3468 52.07727,0"
               style="fill:none;stroke:#808080;stroke-width:0.3985;stroke-linecap:butt;stroke-linejoin:miter;stroke-miterlimit:10;stroke-dasharray:none;stroke-opacity:1"
               id="path230"
               inkscape:connector-curvature="0" /><g
               id="g232"
               transform="translate(60.74487,-28.3468)"><g
                 id="g234"><path
                   d="M -1.19551,1.59401 C -1.09587,0.99626 0,0.09961 0.29886,0 0,-0.09961 -1.09587,-0.99626 -1.19551,-1.59401"
                   style="fill:none;stroke:#808080;stroke-width:0.31878999;stroke-linecap:round;stroke-linejoin:round;stroke-miterlimit:10;stroke-dasharray:none;stroke-opacity:1"
                   id="path236"
                   inkscape:connector-curvature="0" /></g></g></g><g
             id="g238"><path
               d="M 8.04771,-31.56593 61.4413,-52.92337"
               style="fill:none;stroke:#808080;stroke-width:0.3985;stroke-linecap:butt;stroke-linejoin:miter;stroke-miterlimit:10;stroke-dasharray:none;stroke-opacity:1"
               id="path240"
               inkscape:connector-curvature="0" /><g
               id="g242"
               transform="matrix(0.92848,-0.37143,0.37143,0.92848,61.4413,-52.92337)"><g
                 id="g244"><path
                   d="M -1.19551,1.59401 C -1.09587,0.99626 0,0.09961 0.29886,0 0,-0.09961 -1.09587,-0.99626 -1.19551,-1.59401"
                   style="fill:none;stroke:#808080;stroke-width:0.31878999;stroke-linecap:round;stroke-linejoin:round;stroke-miterlimit:10;stroke-dasharray:none;stroke-opacity:1"
                   id="path246"
                   inkscape:connector-curvature="0" /></g></g></g><g
             id="g248"><path
               d="M 8.04771,-53.47449 61.4413,-32.11705"
               style="fill:none;stroke:#808080;stroke-width:0.3985;stroke-linecap:butt;stroke-linejoin:miter;stroke-miterlimit:10;stroke-dasharray:none;stroke-opacity:1"
               id="path250"
               inkscape:connector-curvature="0" /><g
               id="g252"
               transform="matrix(0.92848,0.37143,-0.37143,0.92848,61.4413,-32.11705)"><g
                 id="g254"><path
                   d="M -1.19551,1.59401 C -1.09587,0.99626 0,0.09961 0.29886,0 0,-0.09961 -1.09587,-0.99626 -1.19551,-1.59401"
                   style="fill:none;stroke:#808080;stroke-width:0.31878999;stroke-linecap:round;stroke-linejoin:round;stroke-miterlimit:10;stroke-dasharray:none;stroke-opacity:1"
                   id="path256"
                   inkscape:connector-curvature="0" /></g></g></g><g
             id="g258"><path
               d="m 8.6676,-56.69362 52.07727,0"
               style="fill:none;stroke:#808080;stroke-width:0.3985;stroke-linecap:butt;stroke-linejoin:miter;stroke-miterlimit:10;stroke-dasharray:none;stroke-opacity:1"
               id="path260"
               inkscape:connector-curvature="0" /><g
               id="g262"
               transform="translate(60.74487,-56.69362)"><g
                 id="g264"><path
                   d="M -1.19551,1.59401 C -1.09587,0.99626 0,0.09961 0.29886,0 0,-0.09961 -1.09587,-0.99626 -1.19551,-1.59401"
                   style="fill:none;stroke:#808080;stroke-width:0.31878999;stroke-linecap:round;stroke-linejoin:round;stroke-miterlimit:10;stroke-dasharray:none;stroke-opacity:1"
                   id="path266"
                   inkscape:connector-curvature="0" /></g></g></g><g
             id="g268"><path
               d="M 8.04771,-3.21912 61.4413,-24.57655"
               style="fill:none;stroke:#808080;stroke-width:0.3985;stroke-linecap:butt;stroke-linejoin:miter;stroke-miterlimit:10;stroke-dasharray:none;stroke-opacity:1"
               id="path270"
               inkscape:connector-curvature="0" /><g
               id="g272"
               transform="matrix(0.92848,-0.37143,0.37143,0.92848,61.4413,-24.57655)"><g
                 id="g274"><path
                   d="M -1.19551,1.59401 C -1.09587,0.99626 0,0.09961 0.29886,0 0,-0.09961 -1.09587,-0.99626 -1.19551,-1.59401"
                   style="fill:none;stroke:#808080;stroke-width:0.31878999;stroke-linecap:round;stroke-linejoin:round;stroke-miterlimit:10;stroke-dasharray:none;stroke-opacity:1"
                   id="path276"
                   inkscape:connector-curvature="0" /></g></g></g><g
             id="g278"><path
               d="M 6.80132,-5.44092 62.9299,-50.34389"
               style="fill:none;stroke:#808080;stroke-width:0.3985;stroke-linecap:butt;stroke-linejoin:miter;stroke-miterlimit:10;stroke-dasharray:none;stroke-opacity:1"
               id="path280"
               inkscape:connector-curvature="0" /><g
               id="g282"
               transform="matrix(0.78087,-0.62473,0.62473,0.78087,62.9299,-50.34387)"><g
                 id="g284"><path
                   d="M -1.19551,1.59401 C -1.09587,0.99626 0,0.09961 0.29886,0 0,-0.09961 -1.09587,-0.99626 -1.19551,-1.59401"
                   style="fill:none;stroke:#808080;stroke-width:0.31878999;stroke-linecap:round;stroke-linejoin:round;stroke-miterlimit:10;stroke-dasharray:none;stroke-opacity:1"
                   id="path286"
                   inkscape:connector-curvature="0" /></g></g></g><g
             id="g288"><path
               d="m 78.91475,-3.21912 53.3936,-21.35743"
               style="fill:none;stroke:#808080;stroke-width:0.3985;stroke-linecap:butt;stroke-linejoin:miter;stroke-miterlimit:10;stroke-dasharray:none;stroke-opacity:1"
               id="path290"
               inkscape:connector-curvature="0" /><g
               id="g292"
               transform="matrix(0.92848,-0.37143,0.37143,0.92848,132.30835,-24.57655)"><g
                 id="g294"><path
                   d="M -1.19551,1.59401 C -1.09587,0.99626 0,0.09961 0.29886,0 0,-0.09961 -1.09587,-0.99626 -1.19551,-1.59401"
                   style="fill:none;stroke:#808080;stroke-width:0.31878999;stroke-linecap:round;stroke-linejoin:round;stroke-miterlimit:10;stroke-dasharray:none;stroke-opacity:1"
                   id="path296"
                   inkscape:connector-curvature="0" /></g></g></g><g
             id="g298"><path
               d="m 79.53465,-28.3468 52.07727,0"
               style="fill:none;stroke:#808080;stroke-width:0.3985;stroke-linecap:butt;stroke-linejoin:miter;stroke-miterlimit:10;stroke-dasharray:none;stroke-opacity:1"
               id="path300"
               inkscape:connector-curvature="0" /><g
               id="g302"
               transform="translate(131.61192,-28.3468)"><g
                 id="g304"><path
                   d="M -1.19551,1.59401 C -1.09587,0.99626 0,0.09961 0.29886,0 0,-0.09961 -1.09587,-0.99626 -1.19551,-1.59401"
                   style="fill:none;stroke:#808080;stroke-width:0.31878999;stroke-linecap:round;stroke-linejoin:round;stroke-miterlimit:10;stroke-dasharray:none;stroke-opacity:1"
                   id="path306"
                   inkscape:connector-curvature="0" /></g></g></g><g
             id="g308"><path
               d="m 78.91475,-53.47449 53.3936,21.35744"
               style="fill:none;stroke:#808080;stroke-width:0.3985;stroke-linecap:butt;stroke-linejoin:miter;stroke-miterlimit:10;stroke-dasharray:none;stroke-opacity:1"
               id="path310"
               inkscape:connector-curvature="0" /><g
               id="g312"
               transform="matrix(0.92848,0.37143,-0.37143,0.92848,132.30835,-32.11705)"><g
                 id="g314"><path
                   d="M -1.19551,1.59401 C -1.09587,0.99626 0,0.09961 0.29886,0 0,-0.09961 -1.09587,-0.99626 -1.19551,-1.59401"
                   style="fill:none;stroke:#808080;stroke-width:0.31878999;stroke-linecap:round;stroke-linejoin:round;stroke-miterlimit:10;stroke-dasharray:none;stroke-opacity:1"
                   id="path316"
                   inkscape:connector-curvature="0" /></g></g></g><g
             id="g318"><g
               id="g320"
               transform="translate(50.941,31.833)"><g
                 id="g322"
                 transform="translate(4.289,0)"><g
                   id="g324"
                   transform="translate(-242.482,-656.959)"><text
                     transform="matrix(1,0,0,-1,242.482,656.959)"
                     style="font-variant:normal;font-weight:normal;font-size:9.96259975px;font-family:CMR10;-inkscape-font-specification:CMR10;writing-mode:lr-tb;fill:#000000;fill-opacity:1;fill-rule:nonzero;stroke:none"
                     id="text326"><tspan
                       x="0 7.4719501 10.23956 15.774781 21.310001 25.737381"
                       y="0"
                       sodipodi:role="line"
                       id="tspan328">Hidden</tspan><tspan
                       x="5.244 8.01161 12.713958 17.693264 22.120644"
                       y="11.955"
                       sodipodi:role="line"
                       id="tspan330">layer</tspan></text>
<g
                     id="g332"
                     transform="translate(238.193,656.959)" /></g></g><g
                 id="g334"
                 transform="translate(-50.941,-31.833)" /></g></g><g
             id="g336"><g
               id="g338"
               transform="translate(-19.925,31.888)"><g
                 id="g340"
                 transform="translate(7.887,0)"><g
                   id="g342"
                   transform="translate(-175.214,-657.014)"><text
                     transform="matrix(1,0,0,-1,175.214,657.014)"
                     style="font-variant:normal;font-weight:normal;font-size:9.96259975px;font-family:CMR10;-inkscape-font-specification:CMR10;writing-mode:lr-tb;fill:#000000;fill-opacity:1;fill-rule:nonzero;stroke:none"
                     id="text344"><tspan
                       x="0 3.5974948 9.1327152 14.667936 20.203157"
                       y="0"
                       sodipodi:role="line"
                       id="tspan346">Input</tspan><tspan
                       x="1.646 4.4136105 9.1159573 14.095265 18.522644"
                       y="11.955"
                       sodipodi:role="line"
                       id="tspan348">layer</tspan></text>
<g
                     id="g350"
                     transform="translate(167.327,657.014)" /></g></g><g
                 id="g352"
                 transform="translate(19.925,-31.888)" /></g></g><g
             id="g354"><g
               id="g356"
               transform="translate(121.807,31.888)"><g
                 id="g358"
                 transform="translate(3.874,0)"><g
                   id="g360"
                   transform="translate(-312.933,-657.014)"><text
                     transform="matrix(1,0,0,-1,312.933,657.014)"
                     style="font-variant:normal;font-weight:normal;font-size:9.96259975px;font-family:CMR10;-inkscape-font-specification:CMR10;writing-mode:lr-tb;fill:#000000;fill-opacity:1;fill-rule:nonzero;stroke:none"
                     id="text362"><tspan
                       x="0 7.7489104 13.284131 17.158587 22.693806 28.229027"
                       y="0"
                       sodipodi:role="line"
                       id="tspan364">Output</tspan><tspan
                       x="5.6599998 8.4276104 13.129957 18.109264 22.536644"
                       y="11.955"
                       sodipodi:role="line"
                       id="tspan366">layer</tspan></text>
<g
                     id="g368"
                     transform="translate(309.059,657.014)" /></g></g><g
                 id="g370"
                 transform="translate(-121.807,-31.888)" /></g></g></g></g></g></g></svg>