<?xml version="1.0" encoding="UTF-8" standalone="no"?>
<!-- Created with Inkscape (http://www.inkscape.org/) -->

<svg
   xmlns:dc="http://purl.org/dc/elements/1.1/"
   xmlns:cc="http://creativecommons.org/ns#"
   xmlns:rdf="http://www.w3.org/1999/02/22-rdf-syntax-ns#"
   xmlns:svg="http://www.w3.org/2000/svg"
   xmlns="http://www.w3.org/2000/svg"
   xmlns:sodipodi="http://sodipodi.sourceforge.net/DTD/sodipodi-0.dtd"
   xmlns:inkscape="http://www.inkscape.org/namespaces/inkscape"
   id="svg2"
   version="1.1"
   inkscape:version="0.91 r13725"
   xml:space="preserve"
   width="649.17365"
   height="217.58615"
   viewBox="0 0 649.17361 217.58615"
   sodipodi:docname="xorandor.svg"><metadata
     id="metadata8"><rdf:RDF><cc:Work
         rdf:about=""><dc:format>image/svg+xml</dc:format><dc:type
           rdf:resource="http://purl.org/dc/dcmitype/StillImage" /><dc:title></dc:title></cc:Work></rdf:RDF></metadata><defs
     id="defs6" /><sodipodi:namedview
     pagecolor="#ffffff"
     bordercolor="#666666"
     borderopacity="1"
     objecttolerance="10"
     gridtolerance="10"
     guidetolerance="10"
     inkscape:pageopacity="0"
     inkscape:pageshadow="2"
     inkscape:window-width="1920"
     inkscape:window-height="1176"
     id="namedview4"
     showgrid="false"
     fit-margin-top="0"
     fit-margin-left="0"
     fit-margin-right="0"
     fit-margin-bottom="0"
     inkscape:zoom="0.89707474"
     inkscape:cx="614.0673"
     inkscape:cy="2.6127686"
     inkscape:window-x="0"
     inkscape:window-y="24"
     inkscape:window-maximized="1"
     inkscape:current-layer="g10" /><g
     id="g10"
     inkscape:groupmode="layer"
     inkscape:label="xorandor"
     transform="matrix(1.25,0,0,-1.25,-329.10183,580.93765)"><g
       id="g12"
       transform="translate(381.365,319.028)"><g
         id="g14"><g
           id="g16"><g
             id="g18"><g
               id="g20"><path
                 d="m -108.69092,85.04042 c 0,2.59374 -2.10258,4.69632 -4.69632,4.69632 -2.59372,0 -4.6963,-2.10258 -4.6963,-4.69632 0,-2.59373 2.10258,-4.69632 4.6963,-4.69632 2.59374,0 4.69632,2.10259 4.69632,4.69632 z"
                 style="fill:#98e80c;fill-opacity:1;fill-rule:nonzero;stroke:none"
                 id="path22"
                 inkscape:connector-curvature="0" /></g><g
               id="g24"
               transform="translate(-113.386,85.04)"><g
                 id="g26" /><g
                 id="g28"
                 transform="translate(113.386,-85.04)" /></g></g><g
             id="g30"><g
               id="g32"
               transform="translate(-100.824,81.636)"><g
                 id="g34"><g
                   id="g36"
                   transform="translate(-280.541,-400.664)"><text
                     transform="matrix(1,0,0,-1,280.541,400.664)"
                     style="font-variant:normal;font-weight:normal;font-size:9.96259975px;font-family:CMR10;-inkscape-font-specification:CMR10;writing-mode:lr-tb;fill:#000000;fill-opacity:1;fill-rule:nonzero;stroke:none"
                     id="text38"><tspan
                       x="0 6.368094 10.270444 15.805665"
                       y="0"
                       sodipodi:role="line"
                       id="tspan40">True</tspan></text>
<g
                     id="g42"
                     transform="translate(280.541,400.664)" /></g></g><g
                 id="g44"
                 transform="translate(100.824,-81.636)" /></g></g><g
             id="g46"><g
               id="g48"><path
                 d="m -51.9973,85.04042 c 0,2.59374 -2.10258,4.69632 -4.69632,4.69632 -2.59372,0 -4.6963,-2.10258 -4.6963,-4.69632 0,-2.59373 2.10258,-4.69632 4.6963,-4.69632 2.59374,0 4.69632,2.10259 4.69632,4.69632 z"
                 style="fill:#fb4953;fill-opacity:1;fill-rule:nonzero;stroke:none"
                 id="path50"
                 inkscape:connector-curvature="0" /></g><g
               id="g52"
               transform="translate(-56.693,85.04)"><g
                 id="g54" /><g
                 id="g56"
                 transform="translate(56.693,-85.04)" /></g></g><g
             id="g58"><g
               id="g60"
               transform="translate(-44.906,81.58)"><g
                 id="g62"><g
                   id="g64"
                   transform="translate(-336.459,-400.608)"><text
                     transform="matrix(1,0,0,-1,336.459,400.608)"
                     style="font-variant:normal;font-weight:normal;font-size:9.96259975px;font-family:CMR10;-inkscape-font-specification:CMR10;writing-mode:lr-tb;fill:#000000;fill-opacity:1;fill-rule:nonzero;stroke:none"
                     id="text66"><tspan
                       x="0 5.6766896 10.65799 13.4256 17.354849"
                       y="0"
                       sodipodi:role="line"
                       id="tspan68">False</tspan></text>
<g
                     id="g70"
                     transform="translate(336.459,400.608)" /></g></g><g
                 id="g72"
                 transform="translate(44.906,-81.58)" /></g></g><g
             id="g74"><g
               id="g76" /><g
               id="g78"
               transform="translate(45.415,138.328)"><g
                 id="g80"><g
                   id="g82"
                   transform="translate(-426.78,-457.356)"><text
                     transform="matrix(1,0,0,-1,426.78,457.356)"
                     style="font-variant:normal;font-weight:normal;font-size:9.96259975px;font-family:CMR10;-inkscape-font-specification:CMR10;writing-mode:lr-tb;fill:#222222;fill-opacity:1;fill-rule:nonzero;stroke:none"
                     id="text84"><tspan
                       x="0 7.4719501 14.9439"
                       y="0"
                       sodipodi:role="line"
                       id="tspan86">AND</tspan></text>
<g
                     id="g88"
                     transform="translate(426.78,457.356)" /></g></g><g
                 id="g90"
                 transform="translate(-45.415,-138.328)" /></g></g><g
             id="g92"><path
               d="M 0,112.67987 0,0 111.6836,0"
               style="fill:none;stroke:#222222;stroke-width:0.79701;stroke-linecap:butt;stroke-linejoin:miter;stroke-miterlimit:10;stroke-dasharray:none;stroke-opacity:1"
               id="path94"
               inkscape:connector-curvature="0" /><g
               id="g96"
               transform="matrix(0,1,-1,0,0,112.67987)"><g
                 id="g98"><path
                   d="M -1.55415,2.0722 C -1.42464,1.29512 0,0.1295 0.38852,0 0,-0.1295 -1.42464,-1.29512 -1.55415,-2.0722"
                   style="fill:none;stroke:#222222;stroke-width:0.6376;stroke-linecap:round;stroke-linejoin:round;stroke-miterlimit:10;stroke-dasharray:none;stroke-opacity:1"
                   id="path100"
                   inkscape:connector-curvature="0" /></g></g><g
               id="g102"
               transform="translate(111.6836,0)"><g
                 id="g104"><path
                   d="M -1.55415,2.0722 C -1.42464,1.29512 0,0.1295 0.38852,0 0,-0.1295 -1.42464,-1.29512 -1.55415,-2.0722"
                   style="fill:none;stroke:#222222;stroke-width:0.6376;stroke-linecap:round;stroke-linejoin:round;stroke-miterlimit:10;stroke-dasharray:none;stroke-opacity:1"
                   id="path106"
                   inkscape:connector-curvature="0" /></g></g><g
               id="g108"><g
                 id="g110"
                 transform="translate(-13.883,111.988)"><g
                   id="g112"><g
                     id="g114"
                     transform="translate(-367.482,-431.016)"><text
                       transform="matrix(1,0,0,-1,367.482,431.016)"
                       style="font-variant:normal;font-weight:normal;font-size:9.96259975px;font-family:CMMI10;-inkscape-font-specification:CMMI10;writing-mode:lr-tb;fill:#000000;fill-opacity:1;fill-rule:nonzero;stroke:none"
                       id="text116"><tspan
                         x="0"
                         y="0"
                         id="tspan118">x</tspan></text>
<text
                       transform="matrix(1,0,0,-1,373.176,429.522)"
                       style="font-variant:normal;font-weight:normal;font-size:6.97380018px;font-family:CMR7;-inkscape-font-specification:CMR7;writing-mode:lr-tb;fill:#000000;fill-opacity:1;fill-rule:nonzero;stroke:none"
                       id="text120"><tspan
                         x="0"
                         y="0"
                         id="tspan122">2</tspan></text>
<g
                       id="g124"
                       transform="translate(367.482,431.016)" /></g></g><g
                   id="g126"
                   transform="translate(13.883,-111.988)" /></g></g><g
               id="g128"><g
                 id="g130"
                 transform="translate(108.304,-8.008)"><g
                   id="g132"><g
                     id="g134"
                     transform="translate(-489.669,-311.02)"><text
                       transform="matrix(1,0,0,-1,489.669,311.02)"
                       style="font-variant:normal;font-weight:normal;font-size:9.96259975px;font-family:CMMI10;-inkscape-font-specification:CMMI10;writing-mode:lr-tb;fill:#000000;fill-opacity:1;fill-rule:nonzero;stroke:none"
                       id="text136"><tspan
                         x="0"
                         y="0"
                         id="tspan138">x</tspan></text>
<text
                       transform="matrix(1,0,0,-1,495.363,309.525)"
                       style="font-variant:normal;font-weight:normal;font-size:6.97380018px;font-family:CMR7;-inkscape-font-specification:CMR7;writing-mode:lr-tb;fill:#000000;fill-opacity:1;fill-rule:nonzero;stroke:none"
                       id="text140"><tspan
                         x="0"
                         y="0"
                         id="tspan142">1</tspan></text>
<g
                       id="g144"
                       transform="translate(489.669,311.02)" /></g></g><g
                   id="g146"
                   transform="translate(-108.304,8.008)" /></g></g></g><g
             id="g148"><g
               id="g150"><path
                 d="M 4.6963,0 C 4.6963,2.59372 2.59372,4.6963 0,4.6963 -2.59372,4.6963 -4.6963,2.59372 -4.6963,0 c 0,-2.59372 2.10258,-4.6963 4.6963,-4.6963 2.59372,0 4.6963,2.10258 4.6963,4.6963 z"
                 style="fill:#fb4953;fill-opacity:1;fill-rule:nonzero;stroke:none"
                 id="path152"
                 inkscape:connector-curvature="0" /></g><g
               id="g154"><g
                 id="g156" /></g></g><g
             id="g158"><g
               id="g160"><path
                 d="m 61.38992,0 c 0,2.59372 -2.10258,4.6963 -4.6963,4.6963 -2.59374,0 -4.69632,-2.10258 -4.69632,-4.6963 0,-2.59372 2.10258,-4.6963 4.69632,-4.6963 2.59372,0 4.6963,2.10258 4.6963,4.6963 z"
                 style="fill:#fb4953;fill-opacity:1;fill-rule:nonzero;stroke:none"
                 id="path162"
                 inkscape:connector-curvature="0" /></g><g
               id="g164"
               transform="translate(56.693,0)"><g
                 id="g166" /><g
                 id="g168"
                 transform="translate(-56.693,0)" /></g></g><g
             id="g170"><g
               id="g172"><path
                 d="m 4.6963,56.69362 c 0,2.59372 -2.10258,4.6963 -4.6963,4.6963 -2.59372,0 -4.6963,-2.10258 -4.6963,-4.6963 0,-2.59374 2.10258,-4.69632 4.6963,-4.69632 2.59372,0 4.6963,2.10258 4.6963,4.69632 z"
                 style="fill:#fb4953;fill-opacity:1;fill-rule:nonzero;stroke:none"
                 id="path174"
                 inkscape:connector-curvature="0" /></g><g
               id="g176"
               transform="translate(0,56.693)"><g
                 id="g178" /><g
                 id="g180"
                 transform="translate(0,-56.693)" /></g></g><g
             id="g182"><g
               id="g184"><path
                 d="m 61.38992,56.69362 c 0,2.59372 -2.10258,4.6963 -4.6963,4.6963 -2.59374,0 -4.69632,-2.10258 -4.69632,-4.6963 0,-2.59374 2.10258,-4.69632 4.69632,-4.69632 2.59372,0 4.6963,2.10258 4.6963,4.69632 z"
                 style="fill:#98e80c;fill-opacity:1;fill-rule:nonzero;stroke:none"
                 id="path186"
                 inkscape:connector-curvature="0" /></g><g
               id="g188"
               transform="translate(56.693,56.693)"><g
                 id="g190" /><g
                 id="g192"
                 transform="translate(-56.693,-56.693)" /></g></g><g
             id="g194"><g
               id="g196"
               transform="translate(36.767,-13.173)"><g
                 id="g198"
                 transform="translate(17.435,0)"><g
                   id="g200"
                   transform="translate(-435.567,-305.855)"><text
                     transform="matrix(1,0,0,-1,435.567,305.855)"
                     style="font-variant:normal;font-weight:normal;font-size:9.96259975px;font-family:CMR10;-inkscape-font-specification:CMR10;writing-mode:lr-tb;fill:#000000;fill-opacity:1;fill-rule:nonzero;stroke:none"
                     id="text202"><tspan
                       x="0"
                       y="0"
                       id="tspan204">1</tspan></text>
<g
                     id="g206"
                     transform="translate(418.132,305.855)" /></g></g><g
                 id="g208"
                 transform="translate(-36.767,13.173)" /></g></g><g
             id="g210"><g
               id="g212"
               transform="translate(-29.888,53.483)"><g
                 id="g214"
                 transform="translate(17.434,0)"><g
                   id="g216"
                   transform="translate(-368.911,-372.511)"><text
                     transform="matrix(1,0,0,-1,368.911,372.511)"
                     style="font-variant:normal;font-weight:normal;font-size:9.96259975px;font-family:CMR10;-inkscape-font-specification:CMR10;writing-mode:lr-tb;fill:#000000;fill-opacity:1;fill-rule:nonzero;stroke:none"
                     id="text218"><tspan
                       x="0"
                       y="0"
                       id="tspan220">1</tspan></text>
<g
                     id="g222"
                     transform="translate(351.477,372.511)" /></g></g><g
                 id="g224"
                 transform="translate(29.888,-53.483)" /></g></g><g
             id="g226"><path
               d="M -28.3468,113.38724 112.68275,-27.64233"
               style="fill:none;stroke:#42affa;stroke-width:1.99255002;stroke-linecap:butt;stroke-linejoin:miter;stroke-miterlimit:10;stroke-dasharray:2.98883, 2.98883;stroke-dashoffset:0;stroke-opacity:1"
               id="path228"
               inkscape:connector-curvature="0" /></g><g
             id="g230"><g
               id="g232" /><g
               id="g234"
               transform="translate(190.884,138.328)"><g
                 id="g236"><g
                   id="g238"
                   transform="translate(-572.249,-457.356)"><text
                     transform="matrix(1,0,0,-1,572.249,457.356)"
                     style="font-variant:normal;font-weight:normal;font-size:9.96259975px;font-family:CMR10;-inkscape-font-specification:CMR10;writing-mode:lr-tb;fill:#222222;fill-opacity:1;fill-rule:nonzero;stroke:none"
                     id="text240"><tspan
                       x="0 7.7489104"
                       y="0"
                       sodipodi:role="line"
                       id="tspan242">OR</tspan></text>
<g
                     id="g244"
                     transform="translate(572.249,457.356)" /></g></g><g
                 id="g246"
                 transform="translate(-190.884,-138.328)" /></g></g><g
             id="g248"><path
               d="M 141.73404,112.67987 141.73404,0 253.41765,0"
               style="fill:none;stroke:#222222;stroke-width:0.79701;stroke-linecap:butt;stroke-linejoin:miter;stroke-miterlimit:10;stroke-dasharray:none;stroke-opacity:1"
               id="path250"
               inkscape:connector-curvature="0" /><g
               id="g252"
               transform="matrix(0,1,-1,0,141.73404,112.67987)"><g
                 id="g254"><path
                   d="M -1.55415,2.0722 C -1.42464,1.29512 0,0.1295 0.38852,0 0,-0.1295 -1.42464,-1.29512 -1.55415,-2.0722"
                   style="fill:none;stroke:#222222;stroke-width:0.6376;stroke-linecap:round;stroke-linejoin:round;stroke-miterlimit:10;stroke-dasharray:none;stroke-opacity:1"
                   id="path256"
                   inkscape:connector-curvature="0" /></g></g><g
               id="g258"
               transform="translate(253.41765,0)"><g
                 id="g260"><path
                   d="M -1.55415,2.0722 C -1.42464,1.29512 0,0.1295 0.38852,0 0,-0.1295 -1.42464,-1.29512 -1.55415,-2.0722"
                   style="fill:none;stroke:#222222;stroke-width:0.6376;stroke-linecap:round;stroke-linejoin:round;stroke-miterlimit:10;stroke-dasharray:none;stroke-opacity:1"
                   id="path262"
                   inkscape:connector-curvature="0" /></g></g><g
               id="g264"><g
                 id="g266"
                 transform="translate(127.85,111.988)"><g
                   id="g268"><g
                     id="g270"
                     transform="translate(-509.215,-431.016)"><text
                       transform="matrix(1,0,0,-1,509.215,431.016)"
                       style="font-variant:normal;font-weight:normal;font-size:9.96259975px;font-family:CMMI10;-inkscape-font-specification:CMMI10;writing-mode:lr-tb;fill:#000000;fill-opacity:1;fill-rule:nonzero;stroke:none"
                       id="text272"><tspan
                         x="0"
                         y="0"
                         id="tspan274">x</tspan></text>
<text
                       transform="matrix(1,0,0,-1,514.909,429.522)"
                       style="font-variant:normal;font-weight:normal;font-size:6.97380018px;font-family:CMR7;-inkscape-font-specification:CMR7;writing-mode:lr-tb;fill:#000000;fill-opacity:1;fill-rule:nonzero;stroke:none"
                       id="text276"><tspan
                         x="0"
                         y="0"
                         id="tspan278">2</tspan></text>
<g
                       id="g280"
                       transform="translate(509.215,431.016)" /></g></g><g
                   id="g282"
                   transform="translate(-127.85,-111.988)" /></g></g><g
               id="g284"><g
                 id="g286"
                 transform="translate(250.036,-8.008)"><g
                   id="g288"><g
                     id="g290"
                     transform="translate(-631.401,-311.02)"><text
                       transform="matrix(1,0,0,-1,631.401,311.02)"
                       style="font-variant:normal;font-weight:normal;font-size:9.96259975px;font-family:CMMI10;-inkscape-font-specification:CMMI10;writing-mode:lr-tb;fill:#000000;fill-opacity:1;fill-rule:nonzero;stroke:none"
                       id="text292"><tspan
                         x="0"
                         y="0"
                         id="tspan294">x</tspan></text>
<text
                       transform="matrix(1,0,0,-1,637.095,309.525)"
                       style="font-variant:normal;font-weight:normal;font-size:6.97380018px;font-family:CMR7;-inkscape-font-specification:CMR7;writing-mode:lr-tb;fill:#000000;fill-opacity:1;fill-rule:nonzero;stroke:none"
                       id="text296"><tspan
                         x="0"
                         y="0"
                         id="tspan298">1</tspan></text>
<g
                       id="g300"
                       transform="translate(631.401,311.02)" /></g></g><g
                   id="g302"
                   transform="translate(-250.036,8.008)" /></g></g></g><g
             id="g304"><g
               id="g306"><path
                 d="m 146.43036,0 c 0,2.59372 -2.10259,4.6963 -4.69632,4.6963 -2.59374,0 -4.69632,-2.10258 -4.69632,-4.6963 0,-2.59372 2.10258,-4.6963 4.69632,-4.6963 2.59373,0 4.69632,2.10258 4.69632,4.6963 z"
                 style="fill:#fb4953;fill-opacity:1;fill-rule:nonzero;stroke:none"
                 id="path308"
                 inkscape:connector-curvature="0" /></g><g
               id="g310"
               transform="translate(141.732,0)"><g
                 id="g312" /><g
                 id="g314"
                 transform="translate(-141.732,0)" /></g></g><g
             id="g316"><g
               id="g318"><path
                 d="m 203.12398,0 c 0,2.59372 -2.10258,4.6963 -4.69632,4.6963 -2.59374,0 -4.69632,-2.10258 -4.69632,-4.6963 0,-2.59372 2.10258,-4.6963 4.69632,-4.6963 2.59374,0 4.69632,2.10258 4.69632,4.6963 z"
                 style="fill:#98e80c;fill-opacity:1;fill-rule:nonzero;stroke:none"
                 id="path320"
                 inkscape:connector-curvature="0" /></g><g
               id="g322"
               transform="translate(198.425,0)"><g
                 id="g324" /><g
                 id="g326"
                 transform="translate(-198.425,0)" /></g></g><g
             id="g328"><g
               id="g330"><path
                 d="m 146.43036,56.69362 c 0,2.59372 -2.10259,4.6963 -4.69632,4.6963 -2.59374,0 -4.69632,-2.10258 -4.69632,-4.6963 0,-2.59374 2.10258,-4.69632 4.69632,-4.69632 2.59373,0 4.69632,2.10258 4.69632,4.69632 z"
                 style="fill:#98e80c;fill-opacity:1;fill-rule:nonzero;stroke:none"
                 id="path332"
                 inkscape:connector-curvature="0" /></g><g
               id="g334"
               transform="translate(141.732,56.693)"><g
                 id="g336" /><g
                 id="g338"
                 transform="translate(-141.732,-56.693)" /></g></g><g
             id="g340"><g
               id="g342"><path
                 d="m 203.12398,56.69362 c 0,2.59372 -2.10258,4.6963 -4.69632,4.6963 -2.59374,0 -4.69632,-2.10258 -4.69632,-4.6963 0,-2.59374 2.10258,-4.69632 4.69632,-4.69632 2.59374,0 4.69632,2.10258 4.69632,4.69632 z"
                 style="fill:#98e80c;fill-opacity:1;fill-rule:nonzero;stroke:none"
                 id="path344"
                 inkscape:connector-curvature="0" /></g><g
               id="g346"
               transform="translate(198.425,56.693)"><g
                 id="g348" /><g
                 id="g350"
                 transform="translate(-198.425,-56.693)" /></g></g><g
             id="g352"><g
               id="g354"
               transform="translate(178.5,-13.173)"><g
                 id="g356"
                 transform="translate(17.434,0)"><g
                   id="g358"
                   transform="translate(-577.299,-305.855)"><text
                     transform="matrix(1,0,0,-1,577.299,305.855)"
                     style="font-variant:normal;font-weight:normal;font-size:9.96259975px;font-family:CMR10;-inkscape-font-specification:CMR10;writing-mode:lr-tb;fill:#000000;fill-opacity:1;fill-rule:nonzero;stroke:none"
                     id="text360"><tspan
                       x="0"
                       y="0"
                       id="tspan362">1</tspan></text>
<g
                     id="g364"
                     transform="translate(559.865,305.855)" /></g></g><g
                 id="g366"
                 transform="translate(-178.5,13.173)" /></g></g><g
             id="g368"><g
               id="g370"
               transform="translate(111.844,53.483)"><g
                 id="g372"
                 transform="translate(17.435,0)"><g
                   id="g374"
                   transform="translate(-510.644,-372.511)"><text
                     transform="matrix(1,0,0,-1,510.644,372.511)"
                     style="font-variant:normal;font-weight:normal;font-size:9.96259975px;font-family:CMR10;-inkscape-font-specification:CMR10;writing-mode:lr-tb;fill:#000000;fill-opacity:1;fill-rule:nonzero;stroke:none"
                     id="text376"><tspan
                       x="0"
                       y="0"
                       id="tspan378">1</tspan></text>
<g
                     id="g380"
                     transform="translate(493.209,372.511)" /></g></g><g
                 id="g382"
                 transform="translate(-111.844,-53.483)" /></g></g><g
             id="g384"><path
               d="m 113.38724,56.69362 84.33592,-84.33595"
               style="fill:none;stroke:#42affa;stroke-width:1.99255002;stroke-linecap:butt;stroke-linejoin:miter;stroke-miterlimit:10;stroke-dasharray:2.98883, 2.98883;stroke-dashoffset:0;stroke-opacity:1"
               id="path386"
               inkscape:connector-curvature="0" /></g><g
             id="g388"><g
               id="g390" /><g
               id="g392"
               transform="translate(329.018,138.328)"><g
                 id="g394"><g
                   id="g396"
                   transform="translate(-710.383,-457.356)"><text
                     transform="matrix(1,0,0,-1,710.383,457.356)"
                     style="font-variant:normal;font-weight:normal;font-size:9.96259975px;font-family:CMR10;-inkscape-font-specification:CMR10;writing-mode:lr-tb;fill:#222222;fill-opacity:1;fill-rule:nonzero;stroke:none"
                     id="text398"><tspan
                       x="0 7.192997 14.941908"
                       y="0"
                       sodipodi:role="line"
                       id="tspan400">XOR</tspan></text>
<g
                     id="g402"
                     transform="translate(710.383,457.356)" /></g></g><g
                 id="g404"
                 transform="translate(-329.018,-138.328)" /></g></g><g
             id="g406"><path
               d="M 283.4681,112.67987 283.4681,0 395.15169,0"
               style="fill:none;stroke:#222222;stroke-width:0.79701;stroke-linecap:butt;stroke-linejoin:miter;stroke-miterlimit:10;stroke-dasharray:none;stroke-opacity:1"
               id="path408"
               inkscape:connector-curvature="0" /><g
               id="g410"
               transform="matrix(0,1,-1,0,283.4681,112.67987)"><g
                 id="g412"><path
                   d="M -1.55415,2.0722 C -1.42464,1.29512 0,0.1295 0.38852,0 0,-0.1295 -1.42464,-1.29512 -1.55415,-2.0722"
                   style="fill:none;stroke:#222222;stroke-width:0.6376;stroke-linecap:round;stroke-linejoin:round;stroke-miterlimit:10;stroke-dasharray:none;stroke-opacity:1"
                   id="path414"
                   inkscape:connector-curvature="0" /></g></g><g
               id="g416"
               transform="translate(395.15169,0)"><g
                 id="g418"><path
                   d="M -1.55415,2.0722 C -1.42464,1.29512 0,0.1295 0.38852,0 0,-0.1295 -1.42464,-1.29512 -1.55415,-2.0722"
                   style="fill:none;stroke:#222222;stroke-width:0.6376;stroke-linecap:round;stroke-linejoin:round;stroke-miterlimit:10;stroke-dasharray:none;stroke-opacity:1"
                   id="path420"
                   inkscape:connector-curvature="0" /></g></g><g
               id="g422"><g
                 id="g424"
                 transform="translate(269.582,111.988)"><g
                   id="g426"><g
                     id="g428"
                     transform="translate(-650.947,-431.016)"><text
                       transform="matrix(1,0,0,-1,650.947,431.016)"
                       style="font-variant:normal;font-weight:normal;font-size:9.96259975px;font-family:CMMI10;-inkscape-font-specification:CMMI10;writing-mode:lr-tb;fill:#000000;fill-opacity:1;fill-rule:nonzero;stroke:none"
                       id="text430"><tspan
                         x="0"
                         y="0"
                         id="tspan432">x</tspan></text>
<text
                       transform="matrix(1,0,0,-1,656.641,429.522)"
                       style="font-variant:normal;font-weight:normal;font-size:6.97380018px;font-family:CMR7;-inkscape-font-specification:CMR7;writing-mode:lr-tb;fill:#000000;fill-opacity:1;fill-rule:nonzero;stroke:none"
                       id="text434"><tspan
                         x="0"
                         y="0"
                         id="tspan436">2</tspan></text>
<g
                       id="g438"
                       transform="translate(650.947,431.016)" /></g></g><g
                   id="g440"
                   transform="translate(-269.582,-111.988)" /></g></g><g
               id="g442"><g
                 id="g444"
                 transform="translate(391.768,-8.008)"><g
                   id="g446"><g
                     id="g448"
                     transform="translate(-773.133,-311.02)"><text
                       transform="matrix(1,0,0,-1,773.133,311.02)"
                       style="font-variant:normal;font-weight:normal;font-size:9.96259975px;font-family:CMMI10;-inkscape-font-specification:CMMI10;writing-mode:lr-tb;fill:#000000;fill-opacity:1;fill-rule:nonzero;stroke:none"
                       id="text450"><tspan
                         x="0"
                         y="0"
                         id="tspan452">x</tspan></text>
<text
                       transform="matrix(1,0,0,-1,778.827,309.525)"
                       style="font-variant:normal;font-weight:normal;font-size:6.97380018px;font-family:CMR7;-inkscape-font-specification:CMR7;writing-mode:lr-tb;fill:#000000;fill-opacity:1;fill-rule:nonzero;stroke:none"
                       id="text454"><tspan
                         x="0"
                         y="0"
                         id="tspan456">1</tspan></text>
<g
                       id="g458"
                       transform="translate(773.133,311.02)" /></g></g><g
                   id="g460"
                   transform="translate(-391.768,8.008)" /></g></g></g><g
             id="g462"><g
               id="g464"><path
                 d="m 288.16441,0 c 0,2.59372 -2.10258,4.6963 -4.69631,4.6963 -2.59374,0 -4.69633,-2.10258 -4.69633,-4.6963 0,-2.59372 2.10259,-4.6963 4.69633,-4.6963 2.59373,0 4.69631,2.10258 4.69631,4.6963 z"
                 style="fill:#fb4953;fill-opacity:1;fill-rule:nonzero;stroke:none"
                 id="path466"
                 inkscape:connector-curvature="0" /></g><g
               id="g468"
               transform="translate(283.464,0)"><g
                 id="g470" /><g
                 id="g472"
                 transform="translate(-283.464,0)" /></g></g><g
             id="g474"><g
               id="g476"><path
                 d="m 344.85803,0 c 0,2.59372 -2.10258,4.6963 -4.69632,4.6963 -2.59373,0 -4.69631,-2.10258 -4.69631,-4.6963 0,-2.59372 2.10258,-4.6963 4.69631,-4.6963 2.59374,0 4.69632,2.10258 4.69632,4.6963 z"
                 style="fill:#98e80c;fill-opacity:1;fill-rule:nonzero;stroke:none"
                 id="path478"
                 inkscape:connector-curvature="0" /></g><g
               id="g480"
               transform="translate(340.157,0)"><g
                 id="g482" /><g
                 id="g484"
                 transform="translate(-340.157,0)" /></g></g><g
             id="g486"><g
               id="g488"><path
                 d="m 288.16441,56.69362 c 0,2.59372 -2.10258,4.6963 -4.69631,4.6963 -2.59374,0 -4.69633,-2.10258 -4.69633,-4.6963 0,-2.59374 2.10259,-4.69632 4.69633,-4.69632 2.59373,0 4.69631,2.10258 4.69631,4.69632 z"
                 style="fill:#98e80c;fill-opacity:1;fill-rule:nonzero;stroke:none"
                 id="path490"
                 inkscape:connector-curvature="0" /></g><g
               id="g492"
               transform="translate(283.464,56.693)"><g
                 id="g494" /><g
                 id="g496"
                 transform="translate(-283.464,-56.693)" /></g></g><g
             id="g498"><g
               id="g500"><path
                 d="m 344.85803,56.69362 c 0,2.59372 -2.10258,4.6963 -4.69632,4.6963 -2.59373,0 -4.69631,-2.10258 -4.69631,-4.6963 0,-2.59374 2.10258,-4.69632 4.69631,-4.69632 2.59374,0 4.69632,2.10258 4.69632,4.69632 z"
                 style="fill:#fb4953;fill-opacity:1;fill-rule:nonzero;stroke:none"
                 id="path502"
                 inkscape:connector-curvature="0" /></g><g
               id="g504"
               transform="translate(340.157,56.693)"><g
                 id="g506" /><g
                 id="g508"
                 transform="translate(-340.157,-56.693)" /></g></g><g
             id="g510"><g
               id="g512"
               transform="translate(320.232,-13.173)"><g
                 id="g514"
                 transform="translate(17.434,0)"><g
                   id="g516"
                   transform="translate(-719.031,-305.855)"><text
                     transform="matrix(1,0,0,-1,719.031,305.855)"
                     style="font-variant:normal;font-weight:normal;font-size:9.96259975px;font-family:CMR10;-inkscape-font-specification:CMR10;writing-mode:lr-tb;fill:#000000;fill-opacity:1;fill-rule:nonzero;stroke:none"
                     id="text518"><tspan
                       x="0"
                       y="0"
                       id="tspan520">1</tspan></text>
<g
                     id="g522"
                     transform="translate(701.597,305.855)" /></g></g><g
                 id="g524"
                 transform="translate(-320.232,13.173)" /></g></g><g
             id="g526"><g
               id="g528"
               transform="translate(253.576,53.483)"><g
                 id="g530"
                 transform="translate(17.435,0)"><g
                   id="g532"
                   transform="translate(-652.376,-372.511)"><text
                     transform="matrix(1,0,0,-1,652.376,372.511)"
                     style="font-variant:normal;font-weight:normal;font-size:9.96259975px;font-family:CMR10;-inkscape-font-specification:CMR10;writing-mode:lr-tb;fill:#000000;fill-opacity:1;fill-rule:nonzero;stroke:none"
                     id="text534"><tspan
                       x="0"
                       y="0"
                       id="tspan536">1</tspan></text>
<g
                     id="g538"
                     transform="translate(634.941,372.511)" /></g></g><g
                 id="g540"
                 transform="translate(-253.576,-53.483)" /></g></g><g
             id="g542"><g
               id="g544" /><g
               id="g546"
               transform="translate(291.885,22.369)"><g
                 id="g548"
                 transform="translate(15.353,0)"><g
                   id="g550"
                   transform="translate(-688.603,-341.397)"><text
                     transform="matrix(1,0,0,-1,688.603,341.397)"
                     style="font-variant:normal;font-weight:normal;font-size:17.2154007px;font-family:CMBX12;-inkscape-font-specification:CMBX12;writing-mode:lr-tb;fill:#42affa;fill-opacity:1;fill-rule:nonzero;stroke:none"
                     id="text552"><tspan
                       x="0"
                       y="0"
                       id="tspan554">?</tspan></text>
<g
                     id="g556"
                     transform="translate(673.25,341.397)" /></g></g><g
                 id="g558"
                 transform="translate(-291.885,-22.369)" /></g></g></g></g></g></g></svg>